<?xml version="1.0" encoding="windows-1252"?>
<!-- Generator: Adobe Illustrator 16.0.0, SVG Export Plug-In . SVG Version: 6.00 Build 0)  -->
<!DOCTYPE svg PUBLIC "-//W3C//DTD SVG 1.1//EN" "http://www.w3.org/Graphics/SVG/1.1/DTD/svg11.dtd">
<svg version="1.1" id="Capa_1" xmlns="http://www.w3.org/2000/svg" xmlns:xlink="http://www.w3.org/1999/xlink" x="0px" y="0px" width="551px" height="551px" viewBox="0 0 551 551" style="enable-background:new 0 0 551 551;" xml:space="preserve">
<g>
	<path d="M501.801,226.55h-37c-4.602-17.9-11.701-34.8-20.801-50.4l26.199-26.2c19.102-19.1,19.102-50.1,0-69.2   c-19.1-19.1-50.1-19.1-69.199,0l-26.199,26.2c-15.602-9.2-32.4-16.2-50.4-20.9v-37c0-27-21.9-49-49-49s-49,21.9-49,49v37   c-17.9,4.6-34.8,11.7-50.4,20.9l-26.2-26.2c-19.1-19.1-50.1-19.1-69.2,0c-19.1,19.1-19.1,50.1,0,69.2l26.2,26.2   c-9.2,15.6-16.2,32.4-20.8,50.4H49c-27,0-49,21.9-49,49c0,27,21.9,49,49,49h37c4.6,17.9,11.7,34.8,20.9,50.4l-26.2,26.199   c-19.1,19.101-19.1,50.101,0,69.2c9.6,9.601,22.1,14.3,34.6,14.3s25.1-4.8,34.6-14.3l26.2-26.2c15.5,9.2,32.4,16.2,50.4,20.801v37   c0,27,21.9,49,49,49c27.1,0,49-21.9,49-49v-37c17.9-4.601,34.801-11.7,50.4-20.801l26.199,26.2c9.6,9.601,22.1,14.3,34.6,14.3   s25.102-4.8,34.602-14.3c19.1-19.1,19.1-50.1,0-69.2L444.1,374.95c9.201-15.601,16.201-32.4,20.9-50.4h37c27,0,49-21.9,49-49   C551,248.45,528.9,226.55,501.801,226.55z M203.2,407.35c-1.8,0.601-3.7,0.9-5.6,0.9c-7.8,0-15-5-17.5-12.8l-22.4-70.9l-0.1-0.4   l-7.3-23.1c-3.1-9.7,2.3-20,11.9-23c9.7-3.1,20,2.3,23,11.9l1.6,5l9.4,29.6l19,59.8C218.3,394.05,212.9,404.35,203.2,407.35z    M226.4,229.85l-34.7,31.3l-0.3,0.3c-3.5,3.2-7.9,4.7-12.3,4.7c-5,0-10-2-13.6-6.1c-6.5-7.1-6-17.8,0.5-24.7   c0.3-0.4,9.3-8.8,9.3-8.8l51.2-46.2l12.1-10.9l1.8-1.7c7.5-6.8,19.1-6.2,25.9,1.3c6.8,7.5,6.2,19.1-1.3,25.9l-0.5,0.4l-34.4,31.2   L226.4,229.85z M234.7,324.55c-4.7-5.2-6.3-12.9-3.3-19.7l1.2-2.8l33-75.4l5.5-12.5c1.2-2.8,3-5,5.2-6.8   c5.2-4.2,12.399-5.6,19.001-2.7c8.6,3.7,12.799,13.2,10.199,22c-0.199,0.7-0.4,1.5-0.699,2.2l-2.102,4.8L265,319.55   c-0.8,1.9-2,3.5-3.3,5c-1.1,1.2-2.2,2.2-3.5,3.1c-3,1.9-6.4,2.9-10,2.9c-2.5,0-5-0.5-7.4-1.5   C238.4,327.95,236.3,326.35,234.7,324.55z M358.9,350.95l-34.5,11.899l-23,7.9l-36.201,12.5c-2,0.7-4,1-6,1   c-6.1,0-11.7-3.101-15.1-8.2c-0.9-1.3-1.7-2.6-2.2-4.1c-3.3-9.601,1.8-20,11.3-23.4l19.3-6.7l8.699-3L322.9,324.45l1.4-0.5   l22.5-7.801c8.5-2.899,17.6,0.7,21.898,8.301c0.602,1,1.102,2,1.4,3.1C373.5,337.149,368.4,347.649,358.9,350.95z M376.4,303.05   c-1.201,0.4-4.9,0.9-5.5,0.9c-7.801,0-15-5-17.5-12.801l-3.201-10l-2.699-8.399l-14.6-46.2l-8.5-26.8l-1-3.1c-1.5-4.6-1-9.4,1-13.5   c2.1-4.4,5.9-8,11-9.6c9.699-3,20,2.3,23,11.9l13,41l5.299,16.9l11.602,36.5C391.4,289.649,386,299.95,376.4,303.05z"/>
</g>
<g>
</g>
<g>
</g>
<g>
</g>
<g>
</g>
<g>
</g>
<g>
</g>
<g>
</g>
<g>
</g>
<g>
</g>
<g>
</g>
<g>
</g>
<g>
</g>
<g>
</g>
<g>
</g>
<g>
</g>
</svg>