<?xml version="1.0" encoding="UTF-8" standalone="no"?>
<svg
   xmlns:dc="http://purl.org/dc/elements/1.1/"
   xmlns:cc="http://creativecommons.org/ns#"
   xmlns:rdf="http://www.w3.org/1999/02/22-rdf-syntax-ns#"
   xmlns:svg="http://www.w3.org/2000/svg"
   xmlns="http://www.w3.org/2000/svg"
   xmlns:sodipodi="http://sodipodi.sourceforge.net/DTD/sodipodi-0.dtd"
   xmlns:inkscape="http://www.inkscape.org/namespaces/inkscape"
   version="1.1"
   x="0px"
   y="0px"
   viewBox="0 0 357.17 225.6"
   xml:space="preserve"
   id="svg55"
   sodipodi:docname="databio_logo.svg"
   inkscape:version="1.0.1 (3bc2e813f5, 2020-09-07)"><metadata
   id="metadata61"><rdf:RDF><cc:Work
       rdf:about=""><dc:format>image/svg+xml</dc:format><dc:type
         rdf:resource="http://purl.org/dc/dcmitype/StillImage" /></cc:Work></rdf:RDF></metadata><defs
   id="defs59" /><sodipodi:namedview
   pagecolor="#ffffff"
   bordercolor="#666666"
   borderopacity="1"
   objecttolerance="10"
   gridtolerance="10"
   guidetolerance="10"
   inkscape:pageopacity="0"
   inkscape:pageshadow="2"
   inkscape:window-width="1920"
   inkscape:window-height="1001"
   id="namedview57"
   showgrid="false"
   inkscape:zoom="3.1525603"
   inkscape:cx="178.58501"
   inkscape:cy="112.8"
   inkscape:window-x="-9"
   inkscape:window-y="-9"
   inkscape:window-maximized="1"
   inkscape:current-layer="svg55" />
<style
   type="text/css"
   id="style2">
	.st0{display:none;}
	.st1{display:none;fill:none;}
	.st2{fill:#f7f7f7;}
	.st3{fill:#0275d8;}
</style>
<g
   id="background"
   class="st0">
	<rect
   class="st1"
   width="357.17"
   height="225.6"
   id="rect4" />
</g>
<g
   id="Layer_3"
   transform="matrix(1.9395148,0,0,1.9395148,-400.97197,-252.21498)">
	<path
   class="st2"
   d="m 331.53,191.11 h -18.89 c -0.67,0 -1.21,-0.54 -1.21,-1.21 V 171 c 0,-0.67 0.54,-1.21 1.21,-1.21 h 18.89 c 0.67,0 1.21,0.54 1.21,1.21 v 18.89 c 0,0.67 -0.54,1.22 -1.21,1.22 z"
   id="path7" />
	<path
   class="st2"
   d="m 306.83,162.45 h -9.26 c -0.67,0 -1.21,-0.54 -1.21,-1.21 v -9.26 c 0,-0.67 0.54,-1.21 1.21,-1.21 h 9.26 c 0.67,0 1.21,0.54 1.21,1.21 v 9.26 c 0,0.66 -0.54,1.21 -1.21,1.21 z"
   id="path9" />
	<path
   class="st3"
   d="M 282.38,145.79 H 271.4 c -0.67,0 -1.21,-0.54 -1.21,-1.21 V 133.6 c 0,-0.67 0.54,-1.21 1.21,-1.21 h 10.98 c 0.67,0 1.21,0.54 1.21,1.21 v 10.98 c 0.01,0.66 -0.54,1.21 -1.21,1.21 z"
   id="path11" />
	<path
   class="st3"
   d="m 290.66,160.47 h -6.83 c -0.48,0 -0.88,-0.39 -0.88,-0.88 v -6.83 c 0,-0.48 0.39,-0.88 0.88,-0.88 h 6.83 c 0.48,0 0.88,0.39 0.88,0.88 v 6.83 c 0,0.49 -0.39,0.88 -0.88,0.88 z"
   id="path13" />
	<path
   class="st3"
   d="m 274.58,178.9 h -6.83 c -0.48,0 -0.88,-0.39 -0.88,-0.88 v -6.83 c 0,-0.48 0.39,-0.88 0.88,-0.88 h 6.83 c 0.48,0 0.88,0.39 0.88,0.88 v 6.83 c 0,0.49 -0.4,0.88 -0.88,0.88 z"
   id="path15" />
	<path
   class="st3"
   d="m 305.81,180.64 h -6.83 c -0.48,0 -0.88,-0.39 -0.88,-0.88 v -6.83 c 0,-0.48 0.39,-0.88 0.88,-0.88 h 6.83 c 0.48,0 0.88,0.39 0.88,0.88 v 6.83 c 0,0.49 -0.4,0.88 -0.88,0.88 z"
   id="path17" />
	<path
   class="st3"
   d="m 296.39,201.57 h -9.47 c -0.48,0 -0.88,-0.39 -0.88,-0.88 v -9.47 c 0,-0.48 0.39,-0.88 0.88,-0.88 h 9.47 c 0.48,0 0.88,0.39 0.88,0.88 v 9.47 c -0.01,0.48 -0.4,0.88 -0.88,0.88 z"
   id="path19" />
	<path
   class="st3"
   d="m 328.75,209.99 h -9.47 c -0.48,0 -0.88,-0.39 -0.88,-0.88 v -9.47 c 0,-0.48 0.39,-0.88 0.88,-0.88 h 9.47 c 0.48,0 0.88,0.39 0.88,0.88 v 9.47 c 0,0.49 -0.4,0.88 -0.88,0.88 z"
   id="path21" />
	<path
   class="st2"
   d="m 291.77,180.45 h -9.26 c -0.67,0 -1.21,-0.54 -1.21,-1.21 v -9.26 c 0,-0.67 0.54,-1.21 1.21,-1.21 h 9.26 c 0.67,0 1.21,0.54 1.21,1.21 v 9.26 c 0,0.66 -0.54,1.21 -1.21,1.21 z"
   id="path23" />
	<path
   class="st2"
   d="m 272.36,201.35 h -8.59 c -0.67,0 -1.21,-0.54 -1.21,-1.21 v -8.59 c 0,-0.67 0.54,-1.21 1.21,-1.21 h 8.59 c 0.67,0 1.21,0.54 1.21,1.21 v 8.59 c 0,0.67 -0.54,1.21 -1.21,1.21 z"
   id="path25" />
	<path
   class="st2"
   d="m 277.09,164.87 h -8.23 c -0.67,0 -1.21,-0.54 -1.21,-1.21 v -8.23 c 0,-0.67 0.54,-1.21 1.21,-1.21 h 8.23 c 0.67,0 1.21,0.54 1.21,1.21 v 8.23 c 0,0.67 -0.55,1.21 -1.21,1.21 z"
   id="path27" />
	
		<rect
   x="309.01001"
   y="156.39999"
   transform="matrix(0.8424,-0.5388,0.5388,0.8424,-40.8596,193.2426)"
   class="st2"
   width="1.9299999"
   height="20.17"
   id="rect29" />
	
		<rect
   x="280.07999"
   y="158.06"
   transform="matrix(0.6455,-0.7638,0.7638,0.6455,-28.7858,274.2639)"
   class="st2"
   width="1.9299999"
   height="20.17"
   id="rect31" />
	
		<rect
   x="292.85001"
   y="156.7"
   transform="matrix(0.8382,0.5454,-0.5454,0.8382,138.4993,-133.2485)"
   class="st2"
   width="1.9299999"
   height="20.17"
   id="rect33" />
	
		<rect
   x="276.64001"
   y="175.22"
   transform="matrix(0.7071,0.7071,-0.7071,0.7071,212.3405,-142.0201)"
   class="st2"
   width="1.9299999"
   height="20.17"
   id="rect35" />
	<g
   id="g51">
		<path
   class="st3"
   d="m 218.81,241.72 v -22.84 h 13.23 c 1.61,0 3.1,0.27 4.46,0.82 1.36,0.54 2.53,1.31 3.52,2.29 0.98,0.98 1.75,2.16 2.31,3.53 0.55,1.37 0.83,2.89 0.83,4.54 0,1.65 -0.28,3.19 -0.83,4.62 -0.56,1.42 -1.32,2.65 -2.31,3.69 -0.99,1.04 -2.16,1.85 -3.52,2.45 -1.36,0.6 -2.85,0.9 -4.46,0.9 z m 13.22,-3.99 c 1.03,0 1.97,-0.19 2.84,-0.57 0.87,-0.38 1.62,-0.9 2.26,-1.56 0.64,-0.66 1.14,-1.45 1.49,-2.37 0.36,-0.92 0.53,-1.92 0.53,-2.98 0,-1.06 -0.18,-2.06 -0.53,-2.97 -0.36,-0.91 -0.85,-1.69 -1.49,-2.34 -0.64,-0.65 -1.39,-1.16 -2.26,-1.52 -0.87,-0.37 -1.82,-0.55 -2.84,-0.55 h -9.27 v 14.86 z"
   id="path37" />
		<path
   class="st3"
   d="m 267.18,241.72 -3.42,-5.75 h -10.81 l 1.88,-3.24 h 7 l -5.09,-8.54 -10.37,17.53 h -4.55 l 13.13,-21.86 c 0.23,-0.4 0.5,-0.71 0.82,-0.94 0.32,-0.23 0.69,-0.35 1.13,-0.35 0.44,0 0.81,0.12 1.12,0.35 0.3,0.23 0.57,0.54 0.8,0.94 l 13.16,21.86 z"
   id="path39" />
		<path
   class="st3"
   d="m 277.71,241.72 v -18.85 h -8.67 v -3.99 h 21.33 v 3.99 h -8.67 v 18.85 z"
   id="path41" />
		<path
   class="st3"
   d="m 312.51,241.72 -3.42,-5.75 h -10.81 l 1.88,-3.24 h 7.01 l -5.09,-8.54 -10.37,17.53 h -4.55 l 13.13,-21.86 c 0.23,-0.4 0.5,-0.71 0.82,-0.94 0.32,-0.23 0.69,-0.35 1.13,-0.35 0.44,0 0.81,0.12 1.12,0.35 0.31,0.23 0.57,0.54 0.8,0.94 l 13.16,21.86 z"
   id="path43" />
		<path
   class="st2"
   d="m 319.74,241.72 v -22.84 h 16.71 c 1.11,0 2.12,0.13 3.03,0.38 0.91,0.25 1.69,0.62 2.34,1.12 0.65,0.49 1.15,1.11 1.51,1.85 0.36,0.74 0.53,1.6 0.53,2.56 0,0.73 -0.08,1.37 -0.25,1.92 -0.17,0.54 -0.4,1.01 -0.69,1.4 -0.29,0.39 -0.63,0.71 -1.02,0.97 -0.39,0.26 -0.79,0.46 -1.21,0.58 1.05,0.33 1.91,0.94 2.58,1.82 0.67,0.88 1.01,1.99 1.01,3.33 0,1.05 -0.17,1.99 -0.52,2.84 -0.35,0.85 -0.84,1.58 -1.48,2.18 -0.64,0.61 -1.41,1.07 -2.32,1.4 -0.91,0.33 -1.92,0.49 -3.03,0.49 z m 6.88,-9.93 v -3.36 h 9.86 c 1.13,0 1.97,-0.21 2.51,-0.63 0.54,-0.42 0.82,-1.13 0.82,-2.14 0,-0.61 -0.12,-1.09 -0.35,-1.46 -0.23,-0.37 -0.56,-0.65 -0.99,-0.85 -0.43,-0.2 -0.94,-0.33 -1.54,-0.39 -0.6,-0.06 -1.26,-0.09 -2,-0.09 h -11.21 v 14.89 h 11.56 c 0.71,0 1.37,-0.05 1.98,-0.16 0.61,-0.1 1.13,-0.28 1.57,-0.52 0.44,-0.24 0.78,-0.55 1.02,-0.93 0.24,-0.38 0.36,-0.85 0.36,-1.41 0,-0.94 -0.29,-1.67 -0.88,-2.18 -0.59,-0.51 -1.45,-0.77 -2.58,-0.77 z"
   id="path45" />
		<path
   class="st2"
   d="m 347.98,241.72 v -22.84 h 3.99 v 22.84 z"
   id="path47" />
		<path
   class="st2"
   d="m 366.58,241.72 c -1.59,0 -3.06,-0.3 -4.41,-0.9 -1.35,-0.6 -2.52,-1.41 -3.52,-2.45 -1,-1.04 -1.77,-2.27 -2.33,-3.69 -0.55,-1.42 -0.83,-2.96 -0.83,-4.62 0,-1.68 0.28,-3.2 0.83,-4.59 0.55,-1.38 1.33,-2.56 2.33,-3.53 0.99,-0.97 2.17,-1.73 3.52,-2.26 1.35,-0.53 2.82,-0.8 4.41,-0.8 h 5.56 c 1.65,0 3.17,0.27 4.54,0.82 1.37,0.54 2.55,1.31 3.53,2.29 0.98,0.98 1.75,2.16 2.29,3.53 0.54,1.37 0.82,2.89 0.82,4.54 0,1.65 -0.28,3.19 -0.83,4.62 -0.55,1.42 -1.33,2.65 -2.32,3.69 -1,1.04 -2.17,1.85 -3.53,2.45 -1.36,0.6 -2.86,0.9 -4.49,0.9 z m 5.55,-3.99 c 1.05,0 2.01,-0.19 2.89,-0.57 0.88,-0.38 1.64,-0.9 2.28,-1.56 0.64,-0.66 1.14,-1.45 1.49,-2.37 0.36,-0.92 0.53,-1.92 0.53,-2.98 0,-1.06 -0.18,-2.06 -0.53,-2.97 -0.36,-0.91 -0.85,-1.69 -1.49,-2.34 -0.64,-0.65 -1.4,-1.16 -2.28,-1.52 -0.88,-0.36 -1.84,-0.55 -2.89,-0.55 h -5.56 c -1.03,0 -1.97,0.18 -2.84,0.55 -0.87,0.37 -1.62,0.87 -2.25,1.52 -0.63,0.65 -1.12,1.42 -1.48,2.32 -0.36,0.9 -0.53,1.9 -0.53,2.98 0,1.07 0.18,2.06 0.53,2.98 0.36,0.92 0.85,1.71 1.48,2.37 0.63,0.66 1.38,1.18 2.25,1.56 0.87,0.38 1.82,0.57 2.84,0.57 h 5.56 z"
   id="path49" />
	</g>
</g>
<g
   id="Layer_2">
</g>
</svg>
